<svg xmlns="http://www.w3.org/2000/svg" xmlns:xlink="http://www.w3.org/1999/xlink" width="500" zoomAndPan="magnify" viewBox="0 0 375 374.999991" height="500" preserveAspectRatio="xMidYMid meet" version="1.0"><defs><clipPath id="cbb844c9c9"><path d="M 187.5 0 C 83.945312 0 0 83.945312 0 187.5 C 0 291.054688 83.945312 375 187.5 375 C 291.054688 375 375 291.054688 375 187.5 C 375 83.945312 291.054688 0 187.5 0 Z M 187.5 0 " clip-rule="nonzero"/></clipPath><clipPath id="60664c308b"><path d="M 0 0 L 375 0 L 375 375 L 0 375 Z M 0 0 " clip-rule="nonzero"/></clipPath><clipPath id="a37db5acae"><path d="M 187.5 0 C 83.945312 0 0 83.945312 0 187.5 C 0 291.054688 83.945312 375 187.5 375 C 291.054688 375 375 291.054688 375 187.5 C 375 83.945312 291.054688 0 187.5 0 Z M 187.5 0 " clip-rule="nonzero"/></clipPath><clipPath id="a8ece7c1fd"><rect x="0" width="375" y="0" height="375"/></clipPath><clipPath id="c6f3c4de09"><path d="M 90 83 L 270 83 L 270 285.371094 L 90 285.371094 Z M 90 83 " clip-rule="nonzero"/></clipPath></defs><g clip-path="url(#cbb844c9c9)"><g transform="matrix(1, 0, 0, 1, 0, 0)"><g clip-path="url(#a8ece7c1fd)"><g clip-path="url(#60664c308b)"><g clip-path="url(#a37db5acae)"><rect x="-82.5" width="540" fill="#344966" height="539.999987" y="-82.499998" fill-opacity="1"/></g></g></g></g></g><g clip-path="url(#c6f3c4de09)"><path fill="#ffffff" d="M 251.921875 162.789062 L 251.921875 160.652344 C 253.207031 158.207031 255.417969 152.335938 253.878906 142.773438 C 252.667969 135.28125 250.835938 130.570312 249.59375 128.035156 C 251.355469 124.140625 253.261719 115.929688 245.605469 105.34375 C 215.480469 72.511719 97.824219 66.535156 90.335938 154.136719 C 88.1875 182.148438 100.226562 210.949219 121.804688 229.339844 C 121.902344 229.425781 131.105469 238.59375 119.777344 280.308594 C 119.453125 281.5 119.703125 282.773438 120.453125 283.753906 C 121.207031 284.738281 122.367188 285.3125 123.605469 285.3125 L 201.746094 285.3125 C 203.027344 285.3125 204.226562 284.695312 204.972656 283.65625 C 205.71875 282.613281 205.914062 281.277344 205.503906 280.070312 C 202.648438 271.0625 199.785156 258.632812 203.039062 255.949219 C 214.503906 258.03125 226.445312 258.527344 229.183594 258.621094 C 235.527344 259.914062 248.03125 257.316406 247.726562 244.800781 C 247.726562 233.894531 253.050781 226.335938 253.097656 226.273438 C 254.472656 224.46875 253.894531 221.644531 251.914062 220.527344 C 251.914062 220.527344 244.6875 216.246094 244.6875 216.246094 L 252.316406 213.234375 C 254.3125 212.445312 255.3125 210.191406 254.582031 208.175781 C 251.769531 199.6875 256.929688 199.566406 263.734375 196.863281 C 268.972656 195.09375 271.015625 188.089844 267.578125 183.761719 C 267.578125 183.761719 251.921875 162.789062 251.921875 162.789062 Z M 261.328125 189.058594 C 259.457031 190.394531 256.5625 190.878906 253.578125 192.285156 C 246.367188 195.171875 245.394531 201.984375 246.175781 207.132812 L 234.242188 211.84375 C 231.226562 212.914062 230.878906 217.40625 233.675781 218.941406 C 233.675781 218.941406 244.480469 225.339844 244.480469 225.339844 C 242.460938 229.304688 239.796875 236.171875 239.796875 244.800781 C 239.796875 247.996094 238.554688 249.042969 238.144531 249.386719 C 235.53125 251.398438 231.519531 250.933594 229.691406 250.699219 C 221.042969 250.4375 196.800781 248.5625 188.585938 243.113281 C 186.757812 241.898438 184.296875 242.398438 183.089844 244.222656 C 181.878906 246.046875 182.375 248.507812 184.199219 249.71875 C 186.90625 251.515625 190.636719 252.953125 194.804688 254.105469 C 192.484375 260.519531 194.613281 270.890625 196.394531 277.382812 L 128.734375 277.382812 C 139.28125 234.996094 128.949219 224.761719 126.902344 223.265625 C 107.265625 206.527344 96.285156 180.273438 98.246094 154.742188 C 105.738281 73.652344 213.578125 84.261719 239.179688 109.996094 C 246.121094 119.585938 242.066406 125.410156 241.9375 125.59375 C 240.871094 126.949219 240.832031 128.886719 241.804688 130.3125 C 241.828125 130.351562 244.488281 134.355469 246.046875 144.039062 C 247.574219 155.960938 244.519531 155.453125 243.992188 159.578125 C 244.144531 161.363281 243.492188 165.039062 244.777344 166.476562 C 244.777344 166.476562 261.222656 188.503906 261.222656 188.503906 C 261.382812 188.714844 261.367188 188.921875 261.328125 189.058594 Z M 261.328125 189.058594 " fill-opacity="1" fill-rule="nonzero"/></g><path fill="#ffffff" d="M 273.007812 206.304688 C 271.1875 207.527344 270.707031 209.992188 271.929688 211.808594 C 275.796875 217.414062 275.796875 225.472656 271.929688 231.078125 C 269.058594 235.375 275.578125 239.804688 278.507812 235.503906 C 284.171875 227.296875 284.171875 215.589844 278.507812 207.382812 C 277.289062 205.566406 274.824219 205.078125 273.007812 206.304688 Z M 273.007812 206.304688 " fill-opacity="1" fill-rule="nonzero"/><path fill="#ffffff" d="M 290.578125 199.34375 C 287.675781 195.058594 281.117188 199.445312 284 203.769531 C 291.117188 214.097656 291.117188 228.785156 284 239.117188 C 282.1875 241.636719 284.222656 245.382812 287.285156 245.296875 C 288.5625 245.296875 289.816406 244.679688 290.578125 243.542969 C 299.492188 230.609375 299.492188 212.277344 290.578125 199.34375 Z M 290.578125 199.34375 " fill-opacity="1" fill-rule="nonzero"/><path fill="#ffffff" d="M 302.996094 191.0625 C 300.109375 186.769531 293.539062 191.121094 296.398438 195.460938 C 306.78125 210.664062 306.777344 232.21875 296.398438 247.425781 C 294.605469 249.941406 296.640625 253.679688 299.695312 253.589844 C 300.976562 253.589844 302.234375 252.96875 302.996094 251.824219 C 315.144531 234.023438 315.148438 208.863281 302.996094 191.0625 Z M 302.996094 191.0625 " fill-opacity="1" fill-rule="nonzero"/></svg>