<svg xmlns="http://www.w3.org/2000/svg" xmlns:xlink="http://www.w3.org/1999/xlink" width="500" zoomAndPan="magnify" viewBox="0 0 375 374.999991" height="500" preserveAspectRatio="xMidYMid meet" version="1.0"><defs><clipPath id="e453f9e9dd"><path d="M 187.5 0 C 83.945312 0 0 83.945312 0 187.5 C 0 291.054688 83.945312 375 187.5 375 C 291.054688 375 375 291.054688 375 187.5 C 375 83.945312 291.054688 0 187.5 0 Z M 187.5 0 " clip-rule="nonzero"/></clipPath><clipPath id="de5278f53c"><path d="M 0 0 L 375 0 L 375 375 L 0 375 Z M 0 0 " clip-rule="nonzero"/></clipPath><clipPath id="6033237f85"><path d="M 187.5 0 C 83.945312 0 0 83.945312 0 187.5 C 0 291.054688 83.945312 375 187.5 375 C 291.054688 375 375 291.054688 375 187.5 C 375 83.945312 291.054688 0 187.5 0 Z M 187.5 0 " clip-rule="nonzero"/></clipPath><clipPath id="632d447cb4"><rect x="0" width="375" y="0" height="375"/></clipPath><clipPath id="b4645951cc"><path d="M 115.21875 75 L 259.96875 75 L 259.96875 300 L 115.21875 300 Z M 115.21875 75 " clip-rule="nonzero"/></clipPath></defs><g clip-path="url(#e453f9e9dd)"><g transform="matrix(1, 0, 0, 1, 0, 0)"><g clip-path="url(#632d447cb4)"><g clip-path="url(#de5278f53c)"><g clip-path="url(#6033237f85)"><rect x="-82.5" width="540" fill="#9ee493" height="539.999987" y="-82.499998" fill-opacity="1"/></g></g></g></g></g><g clip-path="url(#b4645951cc)"><path fill="#ffffff" d="M 259.78125 179.46875 L 259.78125 195.53125 C 256.730469 234.964844 231.191406 263.554688 195.53125 267.332031 L 195.53125 283.875 L 219.625 283.875 L 219.625 299.9375 L 155.375 299.9375 L 155.375 283.875 L 179.46875 283.875 L 179.46875 267.332031 C 144.132812 263.554688 118.59375 235.207031 115.21875 195.53125 L 115.21875 179.46875 L 131.28125 179.46875 L 131.28125 187.5 C 131.28125 225.328125 154.410156 251.75 187.5 251.75 C 220.589844 251.75 243.71875 225.328125 243.71875 187.5 L 243.71875 179.46875 Z M 187.5 243.71875 C 189.078125 243.71875 190.652344 243.640625 192.222656 243.488281 C 193.792969 243.332031 195.351562 243.101562 196.902344 242.792969 C 198.449219 242.484375 199.976562 242.101562 201.488281 241.644531 C 203 241.1875 204.484375 240.65625 205.941406 240.050781 C 207.398438 239.445312 208.824219 238.773438 210.214844 238.027344 C 211.605469 237.285156 212.960938 236.472656 214.273438 235.597656 C 215.582031 234.722656 216.851562 233.78125 218.070312 232.78125 C 219.289062 231.78125 220.457031 230.722656 221.574219 229.605469 C 222.691406 228.488281 223.75 227.320312 224.75 226.101562 C 225.75 224.882812 226.691406 223.613281 227.566406 222.304688 C 228.441406 220.992188 229.253906 219.636719 229.996094 218.246094 C 230.742188 216.855469 231.414062 215.429688 232.019531 213.972656 C 232.625 212.515625 233.15625 211.03125 233.613281 209.519531 C 234.070312 208.007812 234.453125 206.480469 234.761719 204.933594 C 235.070312 203.382812 235.300781 201.824219 235.457031 200.253906 C 235.609375 198.683594 235.6875 197.109375 235.6875 195.53125 L 235.6875 123.25 C 235.6875 121.671875 235.609375 120.097656 235.457031 118.527344 C 235.300781 116.957031 235.070312 115.398438 234.761719 113.847656 C 234.453125 112.300781 234.070312 110.773438 233.613281 109.261719 C 233.15625 107.75 232.625 106.265625 232.019531 104.808594 C 231.414062 103.351562 230.742188 101.925781 229.996094 100.535156 C 229.253906 99.144531 228.441406 97.789062 227.566406 96.476562 C 226.691406 95.167969 225.75 93.898438 224.75 92.679688 C 223.75 91.460938 222.691406 90.292969 221.574219 89.175781 C 220.457031 88.058594 219.289062 87 218.070312 86 C 216.851562 85 215.582031 84.058594 214.273438 83.183594 C 212.960938 82.308594 211.605469 81.496094 210.214844 80.753906 C 208.824219 80.007812 207.398438 79.335938 205.941406 78.730469 C 204.484375 78.125 203 77.59375 201.488281 77.136719 C 199.976562 76.679688 198.449219 76.296875 196.902344 75.988281 C 195.351562 75.679688 193.792969 75.449219 192.222656 75.292969 C 190.652344 75.140625 189.078125 75.0625 187.5 75.0625 C 185.921875 75.0625 184.347656 75.140625 182.777344 75.292969 C 181.207031 75.449219 179.648438 75.679688 178.097656 75.988281 C 176.550781 76.296875 175.023438 76.679688 173.511719 77.136719 C 172 77.59375 170.515625 78.125 169.058594 78.730469 C 167.601562 79.335938 166.175781 80.007812 164.785156 80.753906 C 163.394531 81.496094 162.039062 82.308594 160.726562 83.183594 C 159.417969 84.058594 158.148438 85 156.929688 86 C 155.710938 87 154.542969 88.058594 153.425781 89.175781 C 152.308594 90.292969 151.25 91.460938 150.25 92.679688 C 149.25 93.898438 148.308594 95.167969 147.433594 96.476562 C 146.558594 97.789062 145.746094 99.144531 145.003906 100.535156 C 144.257812 101.925781 143.585938 103.351562 142.980469 104.808594 C 142.375 106.265625 141.84375 107.75 141.386719 109.261719 C 140.929688 110.773438 140.546875 112.300781 140.238281 113.847656 C 139.929688 115.398438 139.699219 116.957031 139.542969 118.527344 C 139.390625 120.097656 139.3125 121.671875 139.3125 123.25 L 139.3125 195.53125 C 139.3125 197.109375 139.390625 198.683594 139.542969 200.253906 C 139.699219 201.824219 139.929688 203.382812 140.238281 204.933594 C 140.546875 206.480469 140.929688 208.007812 141.386719 209.519531 C 141.84375 211.03125 142.375 212.515625 142.980469 213.972656 C 143.585938 215.429688 144.257812 216.855469 145.003906 218.246094 C 145.746094 219.636719 146.558594 220.992188 147.433594 222.304688 C 148.308594 223.613281 149.25 224.882812 150.25 226.101562 C 151.25 227.320312 152.308594 228.488281 153.425781 229.605469 C 154.542969 230.722656 155.710938 231.78125 156.929688 232.78125 C 158.148438 233.78125 159.417969 234.722656 160.726562 235.597656 C 162.039062 236.472656 163.394531 237.285156 164.785156 238.027344 C 166.175781 238.773438 167.601562 239.445312 169.058594 240.050781 C 170.515625 240.65625 172 241.1875 173.511719 241.644531 C 175.023438 242.101562 176.550781 242.484375 178.097656 242.792969 C 179.648438 243.101562 181.207031 243.332031 182.777344 243.488281 C 184.347656 243.640625 185.921875 243.71875 187.5 243.71875 Z M 187.5 243.71875 " fill-opacity="1" fill-rule="nonzero"/></g></svg>