<svg xmlns="http://www.w3.org/2000/svg" xmlns:xlink="http://www.w3.org/1999/xlink" width="500" zoomAndPan="magnify" viewBox="0 0 375 374.999991" height="500" preserveAspectRatio="xMidYMid meet" version="1.0"><defs><clipPath id="657c83d239"><path d="M 17.25 0 L 357.75 0 C 362.324219 0 366.710938 1.816406 369.949219 5.050781 C 373.183594 8.289062 375 12.675781 375 17.25 L 375 357.75 C 375 362.324219 373.183594 366.710938 369.949219 369.949219 C 366.710938 373.183594 362.324219 375 357.75 375 L 17.25 375 C 12.675781 375 8.289062 373.183594 5.050781 369.949219 C 1.816406 366.710938 0 362.324219 0 357.75 L 0 17.25 C 0 12.675781 1.816406 8.289062 5.050781 5.050781 C 8.289062 1.816406 12.675781 0 17.25 0 Z M 17.25 0 " clip-rule="nonzero"/></clipPath><clipPath id="8eff727d7f"><path d="M 0 0 L 375 0 L 375 375 L 0 375 Z M 0 0 " clip-rule="nonzero"/></clipPath><clipPath id="b6a84b6df2"><path d="M 17.25 0 L 357.75 0 C 362.324219 0 366.710938 1.816406 369.949219 5.050781 C 373.183594 8.289062 375 12.675781 375 17.25 L 375 357.75 C 375 362.324219 373.183594 366.710938 369.949219 369.949219 C 366.710938 373.183594 362.324219 375 357.75 375 L 17.25 375 C 12.675781 375 8.289062 373.183594 5.050781 369.949219 C 1.816406 366.710938 0 362.324219 0 357.75 L 0 17.25 C 0 12.675781 1.816406 8.289062 5.050781 5.050781 C 8.289062 1.816406 12.675781 0 17.25 0 Z M 17.25 0 " clip-rule="nonzero"/></clipPath><clipPath id="a3adc3e5cd"><rect x="0" width="375" y="0" height="375"/></clipPath><clipPath id="6d66f111a1"><path d="M 50.796875 97.273438 L 324.546875 97.273438 L 324.546875 278 L 50.796875 278 Z M 50.796875 97.273438 " clip-rule="nonzero"/></clipPath></defs><g clip-path="url(#657c83d239)"><g transform="matrix(1, 0, 0, 1, 0, 0)"><g clip-path="url(#a3adc3e5cd)"><g clip-path="url(#8eff727d7f)"><g clip-path="url(#b6a84b6df2)"><rect x="-82.5" width="540" fill="#dae0e5" height="539.999987" y="-82.499998" fill-opacity="1"/></g></g></g></g></g><g clip-path="url(#6d66f111a1)"><path fill="#344966" d="M 324.0625 97.246094 L 305.863281 165.175781 L 288.796875 148.113281 L 208.625 228.289062 L 192.546875 244.363281 L 162.109375 213.929688 L 146.171875 197.996094 L 124.398438 219.769531 L 104.230469 239.929688 L 66.519531 277.640625 L 66.476562 277.691406 L 50.867188 262.085938 L 66.519531 246.441406 L 104.230469 208.722656 L 124.398438 188.5625 L 146.171875 166.785156 L 192.546875 213.160156 L 273.195312 132.515625 L 256.132812 115.453125 L 258.652344 114.773438 Z M 324.0625 97.246094 " fill-opacity="1" fill-rule="nonzero"/></g></svg>