<svg xmlns="http://www.w3.org/2000/svg" xmlns:xlink="http://www.w3.org/1999/xlink" width="500" zoomAndPan="magnify" viewBox="0 0 375 374.999991" height="500" preserveAspectRatio="xMidYMid meet" version="1.0"><defs><clipPath id="fdf1a16358"><path d="M 17.25 0 L 357.75 0 C 362.324219 0 366.710938 1.816406 369.949219 5.050781 C 373.183594 8.289062 375 12.675781 375 17.25 L 375 357.75 C 375 362.324219 373.183594 366.710938 369.949219 369.949219 C 366.710938 373.183594 362.324219 375 357.75 375 L 17.25 375 C 12.675781 375 8.289062 373.183594 5.050781 369.949219 C 1.816406 366.710938 0 362.324219 0 357.75 L 0 17.25 C 0 12.675781 1.816406 8.289062 5.050781 5.050781 C 8.289062 1.816406 12.675781 0 17.25 0 Z M 17.25 0 " clip-rule="nonzero"/></clipPath><clipPath id="cf02f18acc"><path d="M 0 0 L 375 0 L 375 375 L 0 375 Z M 0 0 " clip-rule="nonzero"/></clipPath><clipPath id="849f4840cb"><path d="M 17.25 0 L 357.75 0 C 362.324219 0 366.710938 1.816406 369.949219 5.050781 C 373.183594 8.289062 375 12.675781 375 17.25 L 375 357.75 C 375 362.324219 373.183594 366.710938 369.949219 369.949219 C 366.710938 373.183594 362.324219 375 357.75 375 L 17.25 375 C 12.675781 375 8.289062 373.183594 5.050781 369.949219 C 1.816406 366.710938 0 362.324219 0 357.75 L 0 17.25 C 0 12.675781 1.816406 8.289062 5.050781 5.050781 C 8.289062 1.816406 12.675781 0 17.25 0 Z M 17.25 0 " clip-rule="nonzero"/></clipPath><clipPath id="43df3432de"><rect x="0" width="375" y="0" height="375"/></clipPath><clipPath id="5edf1654ab"><path d="M 45.4375 37.5 L 329 37.5 L 329 337.5 L 45.4375 337.5 Z M 45.4375 37.5 " clip-rule="nonzero"/></clipPath></defs><g clip-path="url(#fdf1a16358)"><g transform="matrix(1, 0, 0, 1, 0, 0)"><g clip-path="url(#43df3432de)"><g clip-path="url(#cf02f18acc)"><g clip-path="url(#849f4840cb)"><rect x="-82.5" width="540" fill="#9ee493" height="539.999987" y="-82.499998" fill-opacity="1"/></g></g></g></g></g><g clip-path="url(#5edf1654ab)"><path fill="#344966" d="M 91.1875 149.164062 C 87.617188 148.09375 84.179688 146.644531 80.921875 144.855469 L 74.0625 147.894531 C 72.234375 148.703125 70.097656 148.304688 68.683594 146.890625 L 57.953125 136.160156 C 56.535156 134.746094 56.136719 132.601562 56.953125 130.773438 C 56.953125 130.773438 59.996094 123.925781 59.996094 123.925781 C 58.128906 120.542969 56.644531 116.957031 55.558594 113.242188 L 48.566406 110.550781 C 46.699219 109.832031 45.464844 108.035156 45.464844 106.035156 L 45.464844 90.855469 C 45.464844 88.855469 46.699219 87.058594 48.566406 86.339844 C 48.566406 86.339844 55.558594 83.648438 55.558594 83.648438 C 56.644531 79.925781 58.128906 76.34375 59.996094 72.953125 L 56.953125 66.101562 C 56.136719 64.273438 56.535156 62.128906 57.953125 60.714844 L 68.683594 49.984375 C 70.097656 48.570312 72.238281 48.171875 74.070312 48.984375 C 74.070312 48.984375 80.917969 52.03125 80.917969 52.03125 C 84.3125 50.164062 87.890625 48.679688 91.605469 47.601562 L 94.308594 40.597656 C 95.027344 38.730469 96.824219 37.5 98.824219 37.5 L 114 37.5 C 116.003906 37.5 117.800781 38.734375 118.519531 40.601562 L 121.207031 47.601562 C 124.921875 48.679688 128.5 50.164062 131.890625 52.03125 L 138.738281 48.984375 C 140.570312 48.171875 142.710938 48.570312 144.128906 49.984375 L 154.859375 60.714844 C 156.273438 62.128906 156.671875 64.269531 155.863281 66.097656 C 155.863281 66.097656 152.828125 72.949219 152.824219 72.945312 C 154.695312 76.34375 156.179688 79.925781 157.257812 83.652344 L 164.242188 86.339844 C 166.109375 87.058594 167.34375 88.855469 167.34375 90.855469 L 167.34375 93.597656 L 229.96875 93.597656 C 231.25 93.597656 232.480469 94.109375 233.390625 95.015625 L 259.28125 120.90625 C 260.1875 121.816406 260.699219 123.046875 260.699219 124.328125 L 260.699219 148.167969 C 279.695312 129.167969 298.308594 110.558594 298.300781 110.5625 C 304.371094 104.457031 314.316406 104.453125 320.386719 110.546875 L 323.453125 113.582031 C 323.460938 113.59375 323.46875 113.601562 323.476562 113.609375 C 329.539062 119.707031 329.527344 129.644531 323.464844 135.703125 L 260.699219 198.472656 L 260.699219 228.304688 C 288.648438 230.753906 310.5625 254.207031 310.5625 282.796875 C 310.5625 313.015625 286.078125 337.5 255.859375 337.5 C 235.71875 337.5 218.128906 326.625 208.632812 310.425781 L 123.566406 310.425781 L 123.566406 312.832031 C 123.566406 317.472656 120.761719 321.484375 116.777344 323.28125 L 116.777344 326.050781 C 116.777344 332.332031 111.625 337.5 105.34375 337.5 L 96.757812 337.5 C 90.480469 337.5 85.308594 332.332031 85.308594 326.050781 L 85.308594 323.277344 C 81.324219 321.484375 78.535156 317.472656 78.535156 312.832031 L 78.535156 309.984375 C 74.636719 308.152344 71.925781 304.1875 71.925781 299.613281 L 71.925781 293.144531 C 70.808594 274.464844 65.453125 267.441406 61.375 260.230469 C 58.125 254.476562 55.546875 248.632812 55.546875 238.488281 C 55.546875 216.746094 70.796875 198.5625 91.1875 194.054688 Z M 167.34375 103.277344 L 167.34375 106.035156 C 167.34375 108.035156 166.109375 109.832031 164.242188 110.550781 C 164.242188 110.550781 157.253906 113.238281 157.253906 113.238281 C 156.175781 116.953125 154.683594 120.53125 152.824219 123.921875 L 155.4375 129.824219 L 196.550781 129.824219 C 199.222656 129.824219 201.390625 131.992188 201.390625 134.664062 C 201.390625 137.335938 199.222656 139.503906 196.550781 139.503906 L 151.515625 139.503906 L 144.128906 146.890625 C 142.714844 148.304688 140.574219 148.703125 138.746094 147.894531 C 138.746094 147.894531 131.898438 144.859375 131.898438 144.859375 C 128.511719 146.726562 124.921875 148.210938 121.207031 149.289062 L 118.519531 156.273438 C 117.800781 158.144531 116.003906 159.375 114 159.375 L 100.863281 159.375 L 100.863281 192.984375 C 100.925781 192.984375 100.988281 192.984375 101.050781 192.984375 C 116.933594 192.984375 130.914062 201.121094 139.054688 213.453125 L 213.234375 213.453125 L 218.117188 195.246094 L 128.644531 195.246094 C 125.976562 195.246094 123.808594 193.078125 123.808594 190.410156 C 123.808594 187.738281 125.976562 185.570312 128.644531 185.570312 L 223.257812 185.570312 C 223.269531 185.570312 223.28125 185.570312 223.289062 185.574219 C 228.101562 180.765625 238.988281 169.875 251.019531 157.84375 L 251.019531 129.167969 L 229.96875 129.167969 C 227.296875 129.167969 225.128906 127 225.128906 124.328125 L 225.128906 103.277344 Z M 244.175781 119.488281 C 241.21875 116.53125 237.765625 113.078125 234.804688 110.121094 C 234.804688 114.972656 234.804688 119.488281 234.804688 119.488281 Z M 251.019531 208.152344 L 245.835938 213.335938 C 245.234375 213.933594 244.492188 214.363281 243.671875 214.585938 L 228.074219 218.769531 C 227.835938 221.214844 225.769531 223.132812 223.257812 223.132812 L 143.898438 223.132812 C 145.621094 227.929688 146.554688 233.101562 146.554688 238.488281 C 146.554688 239.476562 146.53125 240.425781 146.484375 241.335938 L 220.164062 241.335938 C 228.597656 234.070312 239.277344 229.332031 251.019531 228.304688 Z M 226.585938 200.90625 L 224.195312 209.824219 L 233.109375 207.433594 Z M 242.425781 203.105469 L 304.304688 141.226562 L 292.789062 129.714844 L 230.910156 191.59375 Z M 311.125 134.40625 L 316.648438 128.886719 C 318.96875 126.5625 318.960938 122.757812 316.644531 120.417969 L 313.589844 117.386719 C 313.582031 117.375 313.570312 117.367188 313.5625 117.359375 C 311.25 115.03125 307.457031 115.03125 305.144531 117.359375 C 305.140625 117.363281 305.136719 117.367188 305.132812 117.371094 L 299.609375 122.894531 Z M 204.167969 300.75 C 202.214844 295.125 201.15625 289.085938 201.15625 282.796875 C 201.15625 281.484375 201.203125 280.183594 201.292969 278.898438 L 132.242188 278.898438 C 131.253906 282.808594 130.507812 287.488281 130.167969 293.285156 L 130.160156 299.613281 C 130.160156 299.996094 130.140625 300.375 130.105469 300.75 Z M 202.851562 269.21875 C 204.546875 262.582031 207.453125 256.429688 211.324219 251.011719 L 144.859375 251.011719 C 143.804688 254.457031 142.351562 257.355469 140.726562 260.230469 C 139.144531 263.023438 137.375 265.789062 135.730469 269.21875 Z M 107.101562 324.28125 L 94.988281 324.28125 L 94.988281 326.050781 C 94.988281 327.023438 95.785156 327.824219 96.757812 327.824219 L 105.34375 327.824219 C 106.3125 327.824219 107.101562 327.019531 107.101562 326.050781 Z M 88.214844 311.0625 L 88.214844 312.832031 C 88.214844 313.808594 89.007812 314.601562 89.984375 314.601562 L 112.117188 314.601562 C 113.089844 314.601562 113.886719 313.808594 113.886719 312.832031 L 113.886719 311.0625 Z M 81.601562 297.839844 L 81.601562 299.613281 C 81.601562 300.585938 82.398438 301.382812 83.375 301.382812 L 118.726562 301.382812 C 119.695312 301.382812 120.484375 300.585938 120.484375 299.609375 L 120.484375 297.839844 Z M 255.859375 237.769531 C 230.984375 237.769531 210.832031 257.921875 210.832031 282.796875 C 210.832031 307.667969 230.984375 327.824219 255.859375 327.824219 C 280.730469 327.824219 300.886719 307.667969 300.886719 282.796875 C 300.886719 257.921875 280.730469 237.769531 255.859375 237.769531 Z M 224.355469 258.132812 C 222.464844 256.246094 222.464844 253.179688 224.355469 251.292969 C 226.242188 249.402344 229.308594 249.402344 231.195312 251.292969 L 234.246094 254.339844 C 236.136719 256.230469 236.136719 259.296875 234.246094 261.183594 C 232.359375 263.070312 229.292969 263.070312 227.402344 261.183594 Z M 251.019531 263.933594 C 251.019531 261.261719 253.1875 259.09375 255.859375 259.09375 C 258.53125 259.09375 260.699219 261.261719 260.699219 263.933594 L 260.699219 280.003906 L 270.882812 285.878906 C 273.195312 287.214844 273.988281 290.175781 272.652344 292.492188 C 271.320312 294.804688 268.355469 295.597656 266.042969 294.261719 L 253.441406 286.988281 C 251.941406 286.121094 251.019531 284.523438 251.019531 282.796875 Z M 280.519531 251.292969 C 282.410156 249.402344 285.476562 249.402344 287.363281 251.292969 C 289.253906 253.179688 289.253906 256.246094 287.363281 258.132812 L 284.316406 261.183594 C 282.425781 263.070312 279.359375 263.070312 277.472656 261.183594 C 275.582031 259.296875 275.582031 256.230469 277.472656 254.339844 Z M 251.019531 243.097656 C 251.019531 240.425781 253.1875 238.257812 255.859375 238.257812 C 258.53125 238.257812 260.699219 240.425781 260.699219 243.097656 L 260.699219 247.394531 C 260.699219 250.066406 258.53125 252.234375 255.859375 252.234375 C 253.1875 252.234375 251.019531 250.066406 251.019531 247.394531 Z M 231.195312 314.300781 C 229.308594 316.191406 226.242188 316.191406 224.355469 314.300781 C 222.464844 312.414062 222.464844 309.347656 224.355469 307.457031 L 227.402344 304.410156 C 229.292969 302.519531 232.359375 302.519531 234.246094 304.410156 C 236.136719 306.296875 236.136719 309.363281 234.246094 311.25 Z M 295.574219 277.957031 C 298.242188 277.957031 300.414062 280.125 300.414062 282.796875 C 300.414062 285.46875 298.242188 287.636719 295.574219 287.636719 L 291.261719 287.636719 C 288.589844 287.636719 286.421875 285.46875 286.421875 282.796875 C 286.421875 280.125 288.589844 277.957031 291.261719 277.957031 Z M 287.363281 307.457031 C 289.253906 309.347656 289.253906 312.414062 287.363281 314.300781 C 285.476562 316.191406 282.410156 316.191406 280.519531 314.300781 L 277.472656 311.25 C 275.582031 309.363281 275.582031 306.296875 277.472656 304.410156 C 279.359375 302.519531 282.425781 302.519531 284.316406 304.410156 Z M 260.699219 322.496094 C 260.699219 325.167969 258.53125 327.335938 255.859375 327.335938 C 253.1875 327.335938 251.019531 325.167969 251.019531 322.496094 L 251.019531 318.199219 C 251.019531 315.527344 253.1875 313.359375 255.859375 313.359375 C 258.53125 313.359375 260.699219 315.527344 260.699219 318.199219 Z M 216.160156 287.636719 C 213.488281 287.636719 211.320312 285.46875 211.320312 282.796875 C 211.320312 280.125 213.488281 277.957031 216.160156 277.957031 L 220.457031 277.957031 C 223.128906 277.957031 225.296875 280.125 225.296875 282.796875 C 225.296875 285.46875 223.128906 287.636719 220.457031 287.636719 Z M 113.0625 53.382812 C 113.0625 53.382812 110.675781 47.175781 110.675781 47.175781 L 102.144531 47.175781 L 99.746094 53.390625 C 99.171875 54.878906 97.902344 55.988281 96.347656 56.355469 C 91.898438 57.414062 87.652344 59.171875 83.75 61.574219 C 82.394531 62.414062 80.707031 62.527344 79.246094 61.878906 L 73.175781 59.175781 L 67.144531 65.207031 L 69.84375 71.28125 C 70.492188 72.742188 70.378906 74.425781 69.542969 75.785156 C 67.136719 79.691406 65.378906 83.941406 64.304688 88.40625 C 63.933594 89.957031 62.824219 91.222656 61.335938 91.796875 L 55.144531 94.179688 L 55.144531 102.710938 L 61.335938 105.097656 C 62.824219 105.667969 63.929688 106.933594 64.304688 108.480469 C 65.375 112.933594 67.132812 117.195312 69.539062 121.082031 C 70.378906 122.445312 70.496094 124.132812 69.84375 125.59375 L 67.144531 131.667969 L 73.179688 137.703125 L 79.253906 135.011719 C 80.707031 134.367188 82.386719 134.476562 83.742188 135.308594 C 87.644531 137.699219 91.894531 139.476562 96.363281 140.535156 C 97.914062 140.902344 99.1875 142.015625 99.761719 143.503906 L 102.144531 149.699219 L 110.679688 149.699219 L 113.0625 143.503906 C 113.636719 142.015625 114.90625 140.90625 116.460938 140.535156 C 120.910156 139.476562 125.164062 137.722656 129.050781 135.320312 C 130.410156 134.480469 132.09375 134.363281 133.554688 135.011719 L 139.632812 137.703125 L 145.667969 131.664062 L 142.976562 125.589844 C 142.332031 124.132812 142.445312 122.457031 143.277344 121.101562 C 145.667969 117.195312 147.445312 112.949219 148.503906 108.492188 C 148.871094 106.941406 149.980469 105.667969 151.472656 105.097656 L 157.664062 102.710938 L 157.664062 94.179688 L 151.472656 91.796875 C 149.980469 91.222656 148.871094 89.949219 148.5 88.394531 C 147.445312 83.929688 145.683594 79.6875 143.28125 75.785156 C 142.445312 74.429688 142.332031 72.746094 142.976562 71.285156 L 145.667969 65.210938 L 139.636719 59.175781 L 133.5625 61.878906 C 132.101562 62.527344 130.417969 62.414062 129.058594 61.574219 C 125.15625 59.171875 120.910156 57.414062 116.460938 56.355469 C 114.90625 55.984375 113.632812 54.875 113.0625 53.382812 Z M 106.40625 67.125 C 123.707031 67.125 137.734375 81.136719 137.734375 98.4375 C 137.734375 115.738281 123.707031 129.765625 106.40625 129.765625 C 89.101562 129.765625 75.089844 115.738281 75.089844 98.4375 C 75.089844 81.136719 89.101562 67.125 106.40625 67.125 Z M 106.40625 76.800781 C 94.449219 76.800781 84.769531 86.484375 84.769531 98.4375 C 84.769531 110.394531 94.449219 120.089844 106.40625 120.089844 C 118.363281 120.089844 128.054688 110.394531 128.054688 98.4375 C 128.054688 86.480469 118.359375 76.800781 106.40625 76.800781 Z M 112.90625 288.164062 L 120.863281 288.164062 C 122.332031 273.421875 126.324219 265.777344 130.070312 259.308594 C 133.527344 253.347656 136.878906 248.621094 136.878906 238.488281 C 136.878906 218.703125 120.839844 202.660156 101.050781 202.660156 C 81.261719 202.660156 65.222656 218.703125 65.222656 238.488281 C 65.222656 248.621094 68.574219 253.347656 72.03125 259.308594 C 75.777344 265.777344 79.769531 273.421875 81.238281 288.164062 L 89.195312 288.164062 L 89.195312 253.074219 L 84.574219 253.074219 C 76.722656 253.074219 70.292969 246.640625 70.292969 238.789062 C 70.292969 230.917969 76.722656 224.492188 84.574219 224.492188 C 92.445312 224.492188 98.871094 230.921875 98.871094 238.789062 L 98.871094 243.394531 L 103.230469 243.394531 L 103.230469 238.789062 C 103.230469 230.921875 109.65625 224.492188 117.527344 224.492188 C 125.378906 224.492188 131.808594 230.917969 131.808594 238.789062 C 131.808594 246.640625 125.378906 253.074219 117.527344 253.074219 L 112.90625 253.074219 Z M 98.871094 288.164062 L 103.230469 288.164062 L 103.230469 253.074219 L 98.871094 253.074219 Z M 112.90625 243.394531 L 117.527344 243.394531 C 120.058594 243.394531 122.132812 241.320312 122.132812 238.789062 C 122.132812 236.25 120.0625 234.171875 117.527344 234.171875 C 114.984375 234.171875 112.90625 236.246094 112.90625 238.789062 Z M 89.195312 243.394531 L 89.195312 238.789062 C 89.195312 236.246094 87.117188 234.171875 84.574219 234.171875 C 82.039062 234.171875 79.96875 236.25 79.96875 238.789062 C 79.96875 241.320312 82.042969 243.394531 84.574219 243.394531 Z M 128.644531 167.386719 C 125.976562 167.386719 123.808594 165.21875 123.808594 162.546875 C 123.808594 159.878906 125.976562 157.707031 128.644531 157.707031 L 223.257812 157.707031 C 225.929688 157.707031 228.097656 159.878906 228.097656 162.546875 C 228.097656 165.21875 225.929688 167.386719 223.257812 167.386719 Z M 128.644531 167.386719 " fill-opacity="1" fill-rule="evenodd"/></g></svg>