<svg xmlns="http://www.w3.org/2000/svg" xmlns:xlink="http://www.w3.org/1999/xlink" width="500" zoomAndPan="magnify" viewBox="0 0 375 374.999991" height="500" preserveAspectRatio="xMidYMid meet" version="1.0"><defs><clipPath id="b0e09526ea"><path d="M 71.71875 0 L 303.46875 0 L 303.46875 263 L 71.71875 263 Z M 71.71875 0 " clip-rule="nonzero"/></clipPath></defs><g clip-path="url(#b0e09526ea)"><path fill="#9ee493" d="M 255.082031 186.179688 C 242.441406 200.097656 240.148438 210.609375 237.242188 223.921875 C 235.945312 229.859375 234.476562 236.585938 231.832031 244.960938 C 231.800781 244.980469 231.738281 245.007812 231.644531 245.007812 L 143.28125 245.007812 C 143.195312 245.007812 143.128906 244.984375 143.09375 244.964844 C 140.453125 236.585938 138.988281 229.871094 137.691406 223.945312 C 134.785156 210.625 132.488281 200.105469 119.851562 186.179688 C 99.871094 164.179688 89.738281 140.433594 89.738281 115.605469 C 89.738281 61.714844 133.578125 17.871094 187.460938 17.871094 C 241.347656 17.871094 285.1875 61.714844 285.1875 115.605469 C 285.1875 140.433594 275.058594 164.175781 255.082031 186.179688 Z M 187.460938 0.015625 C 123.734375 0.015625 71.882812 51.871094 71.882812 115.605469 C 71.882812 144.597656 83.898438 173.152344 106.628906 198.183594 C 116.058594 208.570312 117.546875 215.386719 120.246094 227.753906 C 121.554688 233.761719 123.191406 241.238281 126.097656 250.449219 C 128.460938 257.875 135.363281 262.867188 143.28125 262.867188 L 231.644531 262.867188 C 239.550781 262.867188 246.453125 257.878906 248.832031 250.433594 C 251.746094 241.226562 253.375 233.742188 254.6875 227.726562 C 257.382812 215.371094 258.867188 208.570312 268.300781 198.183594 C 291.027344 173.148438 303.042969 144.59375 303.042969 115.605469 C 303.042969 51.871094 251.191406 0.015625 187.460938 0.015625 " fill-opacity="1" fill-rule="nonzero"/></g><path fill="#9ee493" d="M 234.3125 278.347656 L 139.867188 282.242188 C 134.941406 282.445312 131.109375 286.605469 131.3125 291.53125 C 131.511719 296.332031 135.464844 300.089844 140.226562 300.089844 C 140.351562 300.089844 140.476562 300.089844 140.601562 300.082031 L 235.046875 296.1875 C 239.972656 295.984375 243.804688 291.828125 243.601562 286.898438 C 243.398438 281.972656 239.21875 278.136719 234.3125 278.347656 " fill-opacity="1" fill-rule="nonzero"/><path fill="#9ee493" d="M 234.308594 313.003906 L 139.867188 316.910156 C 134.9375 317.113281 131.109375 321.273438 131.3125 326.199219 C 131.515625 331 135.464844 334.757812 140.226562 334.757812 C 140.351562 334.757812 140.476562 334.753906 140.605469 334.75 L 235.046875 330.84375 C 239.972656 330.640625 243.804688 326.480469 243.601562 321.554688 C 243.398438 316.628906 239.246094 312.765625 234.308594 313.003906 " fill-opacity="1" fill-rule="nonzero"/><path fill="#9ee493" d="M 211.660156 342.082031 L 203.046875 350.691406 C 194.445312 359.285156 180.457031 359.285156 171.871094 350.699219 L 163.269531 342.085938 C 159.785156 338.597656 154.132812 338.589844 150.644531 342.074219 C 147.152344 345.5625 147.152344 351.214844 150.636719 354.703125 L 159.242188 363.320312 C 167.015625 371.097656 177.230469 374.984375 187.449219 374.984375 C 197.667969 374.984375 207.890625 371.097656 215.671875 363.320312 L 224.289062 354.707031 C 227.773438 351.21875 227.773438 345.566406 224.289062 342.082031 C 220.800781 338.59375 215.148438 338.59375 211.660156 342.082031 " fill-opacity="1" fill-rule="nonzero"/></svg>