<svg xmlns="http://www.w3.org/2000/svg" xmlns:xlink="http://www.w3.org/1999/xlink" width="500" zoomAndPan="magnify" viewBox="0 0 375 374.999991" height="500" preserveAspectRatio="xMidYMid meet" version="1.0"><path fill="#9ee493" d="M 67.074219 198.546875 L 148.4375 279.90625 L 300.109375 128.234375 L 278.011719 106.136719 L 148.4375 235.710938 L 89.171875 176.449219 Z M 67.074219 198.546875 " fill-opacity="1" fill-rule="nonzero"/><path fill="#9ee493" d="M 375 187.5 C 375 291.054688 291.054688 375 187.5 375 C 83.945312 375 0 291.054688 0 187.5 C 0 83.945312 83.945312 0 187.5 0 C 291.054688 0 375 83.945312 375 187.5 Z M 343.75 187.5 C 343.75 273.792969 273.792969 343.75 187.5 343.75 C 101.207031 343.75 31.25 273.792969 31.25 187.5 C 31.25 101.207031 101.207031 31.25 187.5 31.25 C 273.792969 31.25 343.75 101.207031 343.75 187.5 Z M 343.75 187.5 " fill-opacity="1" fill-rule="evenodd"/></svg>