<svg xmlns="http://www.w3.org/2000/svg" xmlns:xlink="http://www.w3.org/1999/xlink" width="500" zoomAndPan="magnify" viewBox="0 0 375 374.999991" height="500" preserveAspectRatio="xMidYMid meet" version="1.0"><defs><clipPath id="95229f9dd0"><path d="M 3 19 L 375 19 L 375 360.28125 L 3 360.28125 Z M 3 19 " clip-rule="nonzero"/></clipPath></defs><g clip-path="url(#95229f9dd0)"><path fill="#344966" d="M 373.238281 23.515625 C 360.820312 14.511719 336.421875 23.675781 323.304688 28.59375 L 321.933594 29.109375 C 297.210938 38.335938 274.707031 51.320312 255.957031 62.800781 C 231.316406 77.890625 207.035156 94.347656 183.753906 111.734375 C 128.480469 58.09375 80.539062 28.183594 80.421875 28.140625 C 72.839844 23.398438 60.644531 18.804688 50.476562 19.160156 C 38.535156 19.597656 9.125 32.570312 4.539062 45.976562 C 0.09375 58.960938 13.441406 70.007812 27.40625 76.015625 C 67.679688 93.324219 106.566406 116.175781 143.03125 143.976562 C 120.644531 162.765625 99.5 182.367188 80.152344 202.289062 C 11.566406 272.894531 19.464844 314.367188 20.714844 319.242188 C 20.890625 323.429688 23.351562 355.269531 57.476562 360.140625 C 58.917969 360.347656 60.320312 360.449219 61.691406 360.449219 C 67.378906 360.449219 72.398438 358.667969 76.65625 355.121094 C 88.492188 345.269531 90.550781 324.921875 90.890625 316.632812 C 91.914062 291.378906 104.816406 273.855469 119.75 253.5625 L 123.457031 248.515625 C 139.886719 226.011719 159.226562 202.542969 182.53125 176.847656 C 254.851562 242.414062 291.378906 307.050781 291.660156 307.546875 C 305.1875 335.59375 310.878906 339.046875 314.753906 338.601562 C 317.050781 338.367188 318.503906 336.554688 318.980469 334.597656 C 321.863281 315.863281 312.234375 291.496094 311.796875 290.402344 C 290.3125 240.199219 257.496094 190.679688 214.234375 143.171875 C 230.207031 126.914062 245.421875 112.5 260.703125 99.164062 C 281.210938 81.265625 303.566406 66.257812 333.183594 50.5 C 334.238281 49.9375 337.109375 48.191406 340.867188 45.890625 C 348.753906 41.070312 366.980469 29.929688 370.945312 28.925781 C 372.015625 29.117188 373.199219 28.691406 373.902344 27.726562 C 374.878906 26.378906 374.582031 24.496094 373.238281 23.515625 " fill-opacity="1" fill-rule="nonzero"/></g></svg>