<svg xmlns="http://www.w3.org/2000/svg" xmlns:xlink="http://www.w3.org/1999/xlink" width="500" zoomAndPan="magnify" viewBox="0 0 375 374.999991" height="500" preserveAspectRatio="xMidYMid meet" version="1.0"><defs><clipPath id="3454e4e567"><path d="M 187.5 0 C 83.945312 0 0 83.945312 0 187.5 C 0 291.054688 83.945312 375 187.5 375 C 291.054688 375 375 291.054688 375 187.5 C 375 83.945312 291.054688 0 187.5 0 Z M 187.5 0 " clip-rule="nonzero"/></clipPath><clipPath id="99dfc2e8fa"><path d="M 0 0 L 375 0 L 375 375 L 0 375 Z M 0 0 " clip-rule="nonzero"/></clipPath><clipPath id="40931c6692"><path d="M 187.5 0 C 83.945312 0 0 83.945312 0 187.5 C 0 291.054688 83.945312 375 187.5 375 C 291.054688 375 375 291.054688 375 187.5 C 375 83.945312 291.054688 0 187.5 0 Z M 187.5 0 " clip-rule="nonzero"/></clipPath><clipPath id="baffd07fc9"><rect x="0" width="375" y="0" height="375"/></clipPath><clipPath id="5174dc9eda"><path d="M 96 78.054688 L 333.726562 78.054688 L 333.726562 296 L 96 296 Z M 96 78.054688 " clip-rule="nonzero"/></clipPath></defs><g clip-path="url(#3454e4e567)"><g transform="matrix(1, 0, 0, 1, 0, 0)"><g clip-path="url(#baffd07fc9)"><g clip-path="url(#99dfc2e8fa)"><g clip-path="url(#40931c6692)"><rect x="-82.5" width="540" fill="#9ee493" height="539.999987" y="-82.499998" fill-opacity="1"/></g></g></g></g></g><g clip-path="url(#5174dc9eda)"><path fill="#ffffff" d="M 212.238281 163.554688 L 239.785156 222.644531 C 233.738281 222.078125 228.292969 221.40625 222.988281 220.769531 C 203.929688 218.4375 188.902344 216.597656 169.417969 222.75 C 167.367188 223.351562 165.28125 224.058594 163.195312 224.835938 C 162.910156 224.941406 162.628906 225.011719 162.347656 225.117188 L 140.632812 178.511719 C 164.292969 165.394531 174.652344 148.988281 190.140625 124.375 L 192.332031 120.910156 L 212.238281 163.589844 Z M 152.65625 233.25 L 141.871094 238.167969 L 167.226562 292.515625 C 168.605469 295.488281 172.175781 296.761719 175.148438 295.378906 C 178.082031 294 179.355469 290.464844 177.976562 287.496094 L 152.65625 233.214844 Z M 152.761719 229.257812 L 138.761719 235.65625 C 138.761719 235.65625 138.621094 235.761719 138.546875 235.796875 L 132.574219 238.554688 L 129.214844 240.042969 C 119.207031 244.636719 107.21875 240.183594 102.515625 230.070312 L 98.308594 221.015625 C 93.605469 210.902344 97.847656 198.847656 107.855469 194.144531 L 137.523438 180.035156 L 159.128906 226.355469 L 152.796875 229.222656 Z M 112.488281 213.734375 L 137.277344 202.167969 C 138.160156 201.746094 138.546875 200.71875 138.125 199.835938 C 137.699219 198.953125 136.675781 198.5625 135.789062 198.988281 L 111.003906 210.550781 C 110.117188 210.976562 109.730469 212 110.152344 212.882812 C 110.4375 213.519531 111.074219 213.910156 111.746094 213.910156 C 111.992188 213.910156 112.238281 213.875 112.488281 213.734375 Z M 144.382812 213.238281 C 143.957031 212.355469 142.898438 211.964844 142.050781 212.390625 L 117.261719 223.953125 C 116.378906 224.375 115.988281 225.402344 116.414062 226.285156 C 116.695312 226.921875 117.332031 227.3125 118.003906 227.3125 C 118.25 227.3125 118.5 227.277344 118.746094 227.132812 L 143.535156 215.570312 C 144.417969 215.148438 144.808594 214.121094 144.382812 213.238281 Z M 167.933594 240.429688 C 169.59375 239.652344 170.867188 238.273438 171.46875 236.539062 C 172.105469 234.808594 172 232.96875 171.222656 231.308594 L 169.03125 226.570312 C 166.730469 227.277344 164.433594 228.054688 162.132812 228.902344 L 155.875 231.765625 L 161.355469 243.472656 L 167.933594 240.394531 Z M 251.667969 167.199219 C 252.871094 163.414062 252.585938 159.242188 250.820312 155.457031 C 249.050781 151.675781 246.046875 148.773438 242.367188 147.253906 C 239.21875 145.980469 235.894531 145.839844 232.855469 146.832031 L 245.867188 174.730469 C 248.695312 172.960938 250.675781 170.378906 251.703125 167.199219 Z M 243.429688 177.949219 C 243.429688 177.949219 242.578125 176.109375 242.578125 176.109375 L 210.507812 107.367188 C 209.339844 104.855469 207.359375 102.949219 204.921875 101.957031 C 203.753906 101.496094 202.585938 101.25 201.417969 101.25 C 200.183594 101.25 198.945312 101.535156 197.777344 102.0625 C 195.515625 103.125 193.886719 105 193.039062 107.507812 C 192.261719 110.019531 192.472656 112.777344 193.640625 115.253906 L 194.207031 116.457031 L 244.3125 223.917969 L 244.878906 225.117188 C 246.046875 227.628906 248.023438 229.539062 250.464844 230.527344 C 252.835938 231.484375 255.414062 231.449219 257.644531 230.421875 C 262.277344 228.265625 264.113281 222.359375 261.746094 217.269531 Z M 284.339844 78.265625 C 283.421875 77.949219 282.394531 78.40625 282.078125 79.328125 L 266.941406 120.945312 C 266.625 121.867188 267.085938 122.890625 268.003906 123.210938 C 268.214844 123.28125 268.394531 123.316406 268.605469 123.316406 C 269.3125 123.316406 270.019531 122.855469 270.265625 122.148438 L 285.402344 80.527344 C 285.71875 79.609375 285.261719 78.585938 284.339844 78.265625 Z M 332.464844 182.121094 L 290.847656 166.984375 C 289.925781 166.667969 288.902344 167.128906 288.582031 168.046875 C 288.265625 168.964844 288.726562 169.992188 289.644531 170.308594 L 331.265625 185.445312 C 331.476562 185.515625 331.652344 185.550781 331.867188 185.550781 C 332.574219 185.550781 333.28125 185.089844 333.527344 184.382812 C 333.84375 183.464844 333.386719 182.4375 332.464844 182.121094 Z M 289.75 141.84375 L 329.886719 123.140625 C 330.769531 122.714844 331.160156 121.6875 330.734375 120.804688 C 330.308594 119.921875 329.25 119.53125 328.398438 119.957031 L 288.265625 138.660156 C 287.382812 139.085938 286.992188 140.113281 287.417969 140.996094 C 287.699219 141.632812 288.371094 142.019531 289.007812 142.019531 C 289.253906 142.019531 289.503906 141.984375 289.75 141.84375 Z M 289.75 141.84375 " fill-opacity="1" fill-rule="nonzero"/></g></svg>