<svg xmlns="http://www.w3.org/2000/svg" xmlns:xlink="http://www.w3.org/1999/xlink" width="500" zoomAndPan="magnify" viewBox="0 0 375 374.999991" height="500" preserveAspectRatio="xMidYMid meet" version="1.0"><defs><clipPath id="04e837701a"><path d="M 187.5 0 C 83.945312 0 0 83.945312 0 187.5 C 0 291.054688 83.945312 375 187.5 375 C 291.054688 375 375 291.054688 375 187.5 C 375 83.945312 291.054688 0 187.5 0 Z M 187.5 0 " clip-rule="nonzero"/></clipPath><clipPath id="d2c560a0d5"><path d="M 0 0 L 375 0 L 375 375 L 0 375 Z M 0 0 " clip-rule="nonzero"/></clipPath><clipPath id="64fc389f32"><path d="M 187.5 0 C 83.945312 0 0 83.945312 0 187.5 C 0 291.054688 83.945312 375 187.5 375 C 291.054688 375 375 291.054688 375 187.5 C 375 83.945312 291.054688 0 187.5 0 Z M 187.5 0 " clip-rule="nonzero"/></clipPath><clipPath id="00ca523960"><rect x="0" width="375" y="0" height="375"/></clipPath><clipPath id="aab838efed"><path d="M 50.476562 78.054688 L 324.226562 78.054688 L 324.226562 300.804688 L 50.476562 300.804688 Z M 50.476562 78.054688 " clip-rule="nonzero"/></clipPath></defs><g clip-path="url(#04e837701a)"><g transform="matrix(1, 0, 0, 1, 0, 0)"><g clip-path="url(#00ca523960)"><g clip-path="url(#d2c560a0d5)"><g clip-path="url(#64fc389f32)"><rect x="-82.5" width="540" fill="#344966" height="539.999987" y="-82.499998" fill-opacity="1"/></g></g></g></g></g><g clip-path="url(#aab838efed)"><path fill="#ffffff" d="M 290.386719 179.636719 C 289.578125 179.308594 288.671875 179.34375 287.890625 179.742188 C 279.753906 183.867188 270.78125 186.523438 261.210938 187.648438 C 245.898438 174.691406 224.09375 166.578125 199.925781 166.578125 C 195.195312 166.578125 190.554688 166.894531 186.039062 167.488281 C 193.546875 158.199219 197.605469 147.339844 197.605469 136.167969 C 197.605469 127.617188 195.253906 119.484375 191.035156 112.164062 C 202.605469 95.054688 225.878906 84.082031 250.933594 84.082031 C 288.15625 84.082031 318.441406 107.449219 318.441406 136.167969 C 318.441406 147.453125 313.824219 158.199219 305.085938 167.238281 C 304.308594 168.046875 304.039062 169.21875 304.390625 170.28125 L 310.121094 187.632812 Z M 199.925781 292.835938 C 184.746094 292.835938 170.035156 289.449219 157.386719 283.039062 C 156.957031 282.824219 156.488281 282.714844 156.019531 282.714844 C 155.632812 282.714844 155.25 282.785156 154.886719 282.933594 L 131.398438 292.449219 L 138.261719 271.667969 C 138.613281 270.605469 138.34375 269.433594 137.566406 268.628906 C 127.476562 258.183594 122.140625 245.765625 122.140625 232.722656 C 122.140625 199.574219 157.035156 172.613281 199.925781 172.613281 C 223.152344 172.613281 244.03125 180.523438 258.296875 193.039062 C 258.347656 193.085938 258.402344 193.132812 258.457031 193.179688 C 270.4375 203.753906 277.710938 217.597656 277.710938 232.722656 C 277.710938 265.871094 242.816406 292.835938 199.925781 292.835938 Z M 87.105469 179.742188 C 86.328125 179.347656 85.414062 179.3125 84.609375 179.636719 L 64.875 187.632812 L 70.605469 170.28125 C 70.957031 169.21875 70.691406 168.046875 69.910156 167.238281 C 61.175781 158.199219 56.554688 147.453125 56.554688 136.167969 C 56.554688 107.449219 86.839844 84.082031 124.0625 84.082031 C 161.289062 84.082031 191.570312 107.449219 191.570312 136.167969 C 191.570312 148.253906 186.074219 159.988281 176.101562 169.304688 C 162.039062 172.601562 149.511719 178.734375 139.585938 186.863281 C 134.523438 187.785156 129.308594 188.253906 124.0625 188.253906 C 110.875 188.253906 98.097656 185.3125 87.105469 179.742188 Z M 310.683594 170.089844 C 319.710938 160.183594 324.476562 148.488281 324.476562 136.167969 C 324.476562 104.121094 291.484375 78.050781 250.933594 78.050781 C 224.488281 78.050781 200.632812 88.945312 187.464844 106.753906 C 174.667969 89.589844 151.042969 78.050781 124.0625 78.050781 C 83.511719 78.050781 50.519531 104.121094 50.519531 136.167969 C 50.519531 148.488281 55.285156 160.179688 64.316406 170.089844 L 57.101562 191.933594 C 56.730469 193.050781 57.046875 194.277344 57.902344 195.082031 C 58.472656 195.613281 59.214844 195.898438 59.964844 195.898438 C 60.347656 195.898438 60.730469 195.824219 61.097656 195.675781 L 85.617188 185.738281 C 97.164062 191.335938 110.421875 194.289062 124.0625 194.289062 C 126.742188 194.289062 129.417969 194.167969 132.070312 193.941406 C 122.035156 204.847656 116.109375 218.25 116.109375 232.722656 C 116.109375 246.804688 121.585938 260.167969 131.96875 271.484375 L 123.621094 296.75 C 123.253906 297.867188 123.570312 299.09375 124.425781 299.898438 C 124.996094 300.433594 125.738281 300.714844 126.488281 300.714844 C 126.871094 300.714844 127.253906 300.640625 127.621094 300.492188 L 155.894531 289.035156 C 169.101562 295.476562 184.292969 298.871094 199.925781 298.871094 C 246.144531 298.871094 283.742188 269.199219 283.742188 232.722656 C 283.742188 217.796875 277.445312 204.007812 266.835938 192.929688 C 274.808594 191.550781 282.367188 189.144531 289.382812 185.738281 L 313.898438 195.675781 C 314.265625 195.824219 314.648438 195.898438 315.03125 195.898438 C 315.785156 195.898438 316.523438 195.613281 317.09375 195.082031 C 317.953125 194.277344 318.265625 193.050781 317.898438 191.933594 L 310.683594 170.089844 " fill-opacity="1" fill-rule="nonzero"/></g><path fill="#ffffff" d="M 234.253906 230.25 C 234.207031 230.378906 234.164062 230.535156 234.136719 230.671875 C 234.101562 230.84375 230.171875 248.03125 199.925781 264.105469 C 169.683594 248.03125 165.753906 230.84375 165.722656 230.695312 C 165.691406 230.542969 165.652344 230.394531 165.597656 230.25 C 164.976562 228.511719 164.660156 226.683594 164.660156 224.8125 C 164.660156 215.917969 171.894531 208.6875 180.785156 208.6875 C 189.675781 208.6875 196.910156 215.917969 196.910156 224.8125 C 196.910156 226.476562 198.261719 227.828125 199.925781 227.828125 C 201.59375 227.828125 202.945312 226.476562 202.945312 224.8125 C 202.945312 215.917969 210.179688 208.6875 219.066406 208.6875 C 227.960938 208.6875 235.195312 215.917969 235.195312 224.8125 C 235.195312 226.683594 234.875 228.511719 234.253906 230.25 Z M 219.066406 202.652344 C 210.914062 202.652344 203.773438 207.078125 199.925781 213.65625 C 196.078125 207.078125 188.941406 202.652344 180.785156 202.652344 C 168.566406 202.652344 158.625 212.589844 158.625 224.8125 C 158.625 227.308594 159.039062 229.761719 159.855469 232.101562 C 160.445312 234.621094 165.839844 253.300781 198.542969 270.191406 C 198.976562 270.417969 199.453125 270.527344 199.925781 270.527344 C 200.402344 270.527344 200.878906 270.417969 201.3125 270.191406 C 234.011719 253.300781 239.40625 234.621094 240 232.101562 C 240.816406 229.761719 241.226562 227.308594 241.226562 224.8125 C 241.226562 212.589844 231.285156 202.652344 219.066406 202.652344 " fill-opacity="1" fill-rule="nonzero"/><path fill="#ffffff" d="M 131.46875 150.527344 L 131.46875 136.386719 C 131.46875 131.394531 135.527344 127.332031 140.523438 127.332031 L 149.832031 127.332031 C 153.140625 127.332031 155.835938 130.027344 155.835938 133.332031 L 155.835938 153.582031 C 155.835938 156.890625 153.140625 159.582031 149.832031 159.582031 L 140.523438 159.582031 C 135.527344 159.582031 131.46875 155.519531 131.46875 150.527344 Z M 145.96875 165.617188 L 149.832031 165.617188 C 156.46875 165.617188 161.867188 160.214844 161.867188 153.582031 L 161.867188 133.332031 C 161.867188 126.699219 156.46875 121.296875 149.832031 121.296875 L 138.890625 121.296875 L 142.722656 107.503906 C 143.570312 104.460938 142.960938 101.269531 141.046875 98.753906 C 139.132812 96.238281 136.222656 94.792969 132.925781 94.792969 C 129.035156 94.792969 125.464844 97.074219 123.828125 100.601562 L 118.0625 113.03125 C 115.730469 118.054688 110.644531 121.296875 105.105469 121.296875 L 89.277344 121.296875 C 87.613281 121.296875 86.261719 122.648438 86.261719 124.316406 C 86.261719 125.980469 87.613281 127.332031 89.277344 127.332031 L 105.105469 127.332031 C 112.984375 127.332031 120.21875 122.714844 123.535156 115.570312 L 129.304688 103.140625 C 129.957031 101.734375 131.378906 100.828125 133.0625 100.828125 C 134.320312 100.828125 135.480469 101.402344 136.242188 102.40625 C 137.003906 103.40625 137.246094 104.675781 136.910156 105.890625 L 132.019531 123.507812 C 131.972656 123.667969 131.949219 123.832031 131.929688 123.996094 C 128.007812 126.722656 125.433594 131.257812 125.433594 136.386719 L 125.433594 150.527344 C 125.433594 153.921875 126.558594 157.058594 128.460938 159.582031 L 89.277344 159.582031 C 87.613281 159.582031 86.261719 160.933594 86.261719 162.597656 C 86.261719 164.265625 87.613281 165.617188 89.277344 165.617188 L 145.96875 165.617188 " fill-opacity="1" fill-rule="nonzero"/><path fill="#ffffff" d="M 221.460938 131.175781 C 214.179688 131.175781 214.167969 142.488281 221.460938 142.488281 C 228.738281 142.488281 228.75 131.175781 221.460938 131.175781 " fill-opacity="1" fill-rule="nonzero"/><path fill="#ffffff" d="M 254.476562 131.175781 C 247.199219 131.175781 247.183594 142.488281 254.476562 142.488281 C 261.753906 142.488281 261.769531 131.175781 254.476562 131.175781 " fill-opacity="1" fill-rule="nonzero"/><path fill="#ffffff" d="M 287.492188 131.175781 C 280.214844 131.175781 280.203125 142.488281 287.492188 142.488281 C 294.773438 142.488281 294.785156 131.175781 287.492188 131.175781 " fill-opacity="1" fill-rule="nonzero"/></svg>