<svg xmlns="http://www.w3.org/2000/svg" xmlns:xlink="http://www.w3.org/1999/xlink" width="500" zoomAndPan="magnify" viewBox="0 0 375 374.999991" height="500" preserveAspectRatio="xMidYMid meet" version="1.0"><defs><clipPath id="21cf7a97ae"><path d="M 50.40625 90.5625 L 101 90.5625 L 101 284.0625 L 50.40625 284.0625 Z M 50.40625 90.5625 " clip-rule="nonzero"/></clipPath><clipPath id="c8dc301a65"><path d="M 274 90.5625 L 324.90625 90.5625 L 324.90625 284.0625 L 274 284.0625 Z M 274 90.5625 " clip-rule="nonzero"/></clipPath></defs><path fill="#000000" d="M 208.707031 187.3125 C 208.707031 188 208.675781 188.6875 208.605469 189.371094 C 208.539062 190.054688 208.4375 190.734375 208.304688 191.410156 C 208.167969 192.082031 208 192.75 207.800781 193.40625 C 207.601562 194.0625 207.371094 194.710938 207.105469 195.34375 C 206.84375 195.980469 206.546875 196.601562 206.222656 197.207031 C 205.898438 197.8125 205.542969 198.402344 205.160156 198.972656 C 204.777344 199.546875 204.367188 200.097656 203.929688 200.628906 C 203.492188 201.160156 203.03125 201.667969 202.542969 202.152344 C 202.054688 202.640625 201.542969 203.101562 201.011719 203.539062 C 200.480469 203.972656 199.925781 204.382812 199.351562 204.765625 C 198.78125 205.144531 198.1875 205.5 197.582031 205.824219 C 196.972656 206.148438 196.351562 206.441406 195.714844 206.703125 C 195.078125 206.964844 194.429688 207.199219 193.769531 207.398438 C 193.109375 207.597656 192.441406 207.765625 191.765625 207.898438 C 191.089844 208.03125 190.40625 208.132812 189.722656 208.199219 C 189.035156 208.265625 188.347656 208.300781 187.65625 208.300781 C 186.96875 208.300781 186.28125 208.265625 185.59375 208.199219 C 184.90625 208.132812 184.226562 208.03125 183.550781 207.898438 C 182.875 207.765625 182.207031 207.597656 181.546875 207.398438 C 180.886719 207.199219 180.238281 206.964844 179.601562 206.703125 C 178.964844 206.441406 178.34375 206.148438 177.734375 205.824219 C 177.125 205.5 176.535156 205.144531 175.960938 204.765625 C 175.390625 204.382812 174.835938 203.972656 174.304688 203.539062 C 173.769531 203.101562 173.261719 202.640625 172.773438 202.152344 C 172.285156 201.667969 171.824219 201.160156 171.386719 200.628906 C 170.949219 200.097656 170.539062 199.546875 170.15625 198.972656 C 169.769531 198.402344 169.417969 197.8125 169.09375 197.207031 C 168.765625 196.601562 168.472656 195.980469 168.210938 195.34375 C 167.945312 194.710938 167.714844 194.0625 167.511719 193.40625 C 167.3125 192.75 167.144531 192.082031 167.011719 191.410156 C 166.875 190.734375 166.777344 190.054688 166.707031 189.371094 C 166.640625 188.6875 166.605469 188 166.605469 187.3125 C 166.605469 186.625 166.640625 185.941406 166.707031 185.257812 C 166.777344 184.574219 166.875 183.894531 167.011719 183.21875 C 167.144531 182.546875 167.3125 181.878906 167.511719 181.222656 C 167.714844 180.5625 167.945312 179.917969 168.210938 179.28125 C 168.472656 178.648438 168.765625 178.027344 169.09375 177.421875 C 169.417969 176.816406 169.769531 176.226562 170.15625 175.65625 C 170.539062 175.082031 170.949219 174.53125 171.386719 174 C 171.824219 173.46875 172.285156 172.960938 172.773438 172.472656 C 173.261719 171.988281 173.769531 171.527344 174.304688 171.089844 C 174.835938 170.65625 175.390625 170.246094 175.960938 169.863281 C 176.535156 169.480469 177.125 169.128906 177.734375 168.804688 C 178.34375 168.480469 178.964844 168.1875 179.601562 167.925781 C 180.238281 167.660156 180.886719 167.429688 181.546875 167.230469 C 182.207031 167.03125 182.875 166.863281 183.550781 166.730469 C 184.226562 166.597656 184.90625 166.496094 185.59375 166.429688 C 186.28125 166.359375 186.96875 166.328125 187.65625 166.328125 C 188.347656 166.328125 189.035156 166.359375 189.722656 166.429688 C 190.40625 166.496094 191.089844 166.597656 191.765625 166.730469 C 192.441406 166.863281 193.109375 167.03125 193.769531 167.230469 C 194.429688 167.429688 195.078125 167.660156 195.714844 167.925781 C 196.351562 168.1875 196.972656 168.480469 197.582031 168.804688 C 198.1875 169.128906 198.78125 169.480469 199.351562 169.863281 C 199.925781 170.246094 200.480469 170.65625 201.011719 171.089844 C 201.542969 171.527344 202.054688 171.988281 202.542969 172.472656 C 203.03125 172.960938 203.492188 173.46875 203.929688 174 C 204.367188 174.53125 204.777344 175.082031 205.160156 175.65625 C 205.542969 176.226562 205.898438 176.816406 206.222656 177.421875 C 206.546875 178.027344 206.84375 178.648438 207.105469 179.28125 C 207.371094 179.917969 207.601562 180.5625 207.800781 181.222656 C 208 181.878906 208.167969 182.546875 208.304688 183.21875 C 208.4375 183.894531 208.539062 184.574219 208.605469 185.257812 C 208.675781 185.941406 208.707031 186.625 208.707031 187.3125 Z M 208.707031 187.3125 " fill-opacity="1" fill-rule="nonzero"/><g clip-path="url(#21cf7a97ae)"><path fill="#000000" d="M 90.613281 284.0625 C 64.691406 258.214844 50.417969 223.859375 50.417969 187.3125 C 50.417969 150.769531 64.691406 116.410156 90.613281 90.5625 L 100.832031 100.746094 C 77.636719 123.875 64.867188 154.617188 64.867188 187.3125 C 64.867188 220.011719 77.636719 250.753906 100.832031 273.882812 Z M 90.613281 284.0625 " fill-opacity="1" fill-rule="nonzero"/></g><path fill="#000000" d="M 113.960938 260.785156 C 94.277344 241.160156 83.4375 215.070312 83.4375 187.3125 C 83.4375 159.558594 94.277344 133.464844 113.964844 113.84375 L 124.179688 124.027344 C 107.222656 140.929688 97.882812 163.40625 97.882812 187.3125 C 97.882812 211.222656 107.222656 233.695312 124.179688 250.601562 Z M 113.960938 260.785156 " fill-opacity="1" fill-rule="nonzero"/><path fill="#000000" d="M 137.316406 237.507812 C 123.863281 224.101562 116.460938 206.273438 116.460938 187.3125 C 116.460938 168.355469 123.867188 150.53125 137.316406 137.121094 L 147.53125 147.304688 C 136.8125 157.996094 130.910156 172.203125 130.910156 187.3125 C 130.910156 202.425781 136.8125 216.636719 147.53125 227.320312 Z M 137.316406 237.507812 " fill-opacity="1" fill-rule="nonzero"/><g clip-path="url(#c8dc301a65)"><path fill="#000000" d="M 284.699219 284.0625 L 274.484375 273.882812 C 297.675781 250.753906 310.449219 220.011719 310.449219 187.3125 C 310.449219 154.617188 297.675781 123.875 274.484375 100.746094 L 284.699219 90.5625 C 310.625 116.410156 324.894531 150.769531 324.894531 187.3125 C 324.894531 223.859375 310.621094 258.214844 284.699219 284.0625 Z M 284.699219 284.0625 " fill-opacity="1" fill-rule="nonzero"/></g><path fill="#000000" d="M 261.351562 260.785156 L 251.136719 250.601562 C 268.089844 233.695312 277.429688 211.21875 277.429688 187.3125 C 277.429688 163.410156 268.089844 140.929688 251.136719 124.027344 L 261.347656 113.84375 C 281.03125 133.464844 291.875 159.554688 291.875 187.3125 C 291.875 215.074219 281.03125 241.160156 261.347656 260.785156 Z M 261.351562 260.785156 " fill-opacity="1" fill-rule="nonzero"/><path fill="#000000" d="M 238.003906 237.507812 L 227.785156 227.320312 C 238.507812 216.632812 244.410156 202.425781 244.410156 187.3125 C 244.410156 172.203125 238.503906 157.992188 227.785156 147.304688 L 238.003906 137.121094 C 251.453125 150.53125 258.859375 168.355469 258.859375 187.3125 C 258.859375 206.273438 251.453125 224.097656 238.003906 237.507812 Z M 238.003906 237.507812 " fill-opacity="1" fill-rule="nonzero"/></svg>