<svg xmlns="http://www.w3.org/2000/svg" xmlns:xlink="http://www.w3.org/1999/xlink" width="500" zoomAndPan="magnify" viewBox="0 0 375 374.999991" height="500" preserveAspectRatio="xMidYMid meet" version="1.0"><defs><clipPath id="dae2616b64"><path d="M 17.25 0 L 357.75 0 C 362.324219 0 366.710938 1.816406 369.949219 5.050781 C 373.183594 8.289062 375 12.675781 375 17.25 L 375 357.75 C 375 362.324219 373.183594 366.710938 369.949219 369.949219 C 366.710938 373.183594 362.324219 375 357.75 375 L 17.25 375 C 12.675781 375 8.289062 373.183594 5.050781 369.949219 C 1.816406 366.710938 0 362.324219 0 357.75 L 0 17.25 C 0 12.675781 1.816406 8.289062 5.050781 5.050781 C 8.289062 1.816406 12.675781 0 17.25 0 Z M 17.25 0 " clip-rule="nonzero"/></clipPath><clipPath id="13f5d8b52c"><path d="M 0 0 L 375 0 L 375 375 L 0 375 Z M 0 0 " clip-rule="nonzero"/></clipPath><clipPath id="695da4c7ab"><path d="M 17.25 0 L 357.75 0 C 362.324219 0 366.710938 1.816406 369.949219 5.050781 C 373.183594 8.289062 375 12.675781 375 17.25 L 375 357.75 C 375 362.324219 373.183594 366.710938 369.949219 369.949219 C 366.710938 373.183594 362.324219 375 357.75 375 L 17.25 375 C 12.675781 375 8.289062 373.183594 5.050781 369.949219 C 1.816406 366.710938 0 362.324219 0 357.75 L 0 17.25 C 0 12.675781 1.816406 8.289062 5.050781 5.050781 C 8.289062 1.816406 12.675781 0 17.25 0 Z M 17.25 0 " clip-rule="nonzero"/></clipPath><clipPath id="58ca935694"><rect x="0" width="375" y="0" height="375"/></clipPath><clipPath id="f9f7730332"><path d="M 50.40625 90.5625 L 101 90.5625 L 101 284.0625 L 50.40625 284.0625 Z M 50.40625 90.5625 " clip-rule="nonzero"/></clipPath><clipPath id="e7d6616b06"><path d="M 274 90.5625 L 324.90625 90.5625 L 324.90625 284.0625 L 274 284.0625 Z M 274 90.5625 " clip-rule="nonzero"/></clipPath></defs><g clip-path="url(#dae2616b64)"><g transform="matrix(1, 0, 0, 1, 0, 0)"><g clip-path="url(#58ca935694)"><g clip-path="url(#13f5d8b52c)"><g clip-path="url(#695da4c7ab)"><rect x="-82.5" width="540" fill="#344966" height="539.999987" y="-82.499998" fill-opacity="1"/></g></g></g></g></g><path fill="#ffffff" d="M 208.527344 187.496094 C 208.527344 188.183594 208.492188 188.871094 208.425781 189.558594 C 208.355469 190.242188 208.257812 190.921875 208.121094 191.597656 C 207.988281 192.273438 207.820312 192.941406 207.621094 193.597656 C 207.421875 194.257812 207.1875 194.90625 206.925781 195.542969 C 206.660156 196.179688 206.367188 196.800781 206.042969 197.40625 C 205.71875 198.015625 205.363281 198.605469 204.980469 199.175781 C 204.597656 199.75 204.191406 200.300781 203.753906 200.835938 C 203.316406 201.367188 202.855469 201.875 202.367188 202.363281 C 201.878906 202.851562 201.371094 203.3125 200.839844 203.75 C 200.304688 204.1875 199.753906 204.597656 199.179688 204.980469 C 198.609375 205.359375 198.019531 205.714844 197.410156 206.039062 C 196.804688 206.363281 196.183594 206.65625 195.546875 206.921875 C 194.910156 207.183594 194.261719 207.417969 193.601562 207.617188 C 192.945312 207.816406 192.277344 207.984375 191.601562 208.117188 C 190.925781 208.253906 190.246094 208.351562 189.558594 208.421875 C 188.875 208.488281 188.1875 208.523438 187.5 208.523438 C 186.8125 208.523438 186.125 208.488281 185.4375 208.421875 C 184.753906 208.351562 184.074219 208.253906 183.398438 208.117188 C 182.722656 207.984375 182.054688 207.816406 181.394531 207.617188 C 180.738281 207.417969 180.089844 207.183594 179.453125 206.921875 C 178.816406 206.65625 178.195312 206.363281 177.585938 206.039062 C 176.980469 205.714844 176.390625 205.359375 175.816406 204.980469 C 175.246094 204.597656 174.691406 204.1875 174.160156 203.75 C 173.628906 203.3125 173.117188 202.851562 172.632812 202.363281 C 172.144531 201.875 171.683594 201.367188 171.246094 200.835938 C 170.808594 200.300781 170.398438 199.75 170.015625 199.175781 C 169.632812 198.605469 169.28125 198.015625 168.957031 197.40625 C 168.632812 196.800781 168.335938 196.179688 168.074219 195.542969 C 167.808594 194.90625 167.578125 194.257812 167.378906 193.597656 C 167.179688 192.941406 167.011719 192.273438 166.875 191.597656 C 166.742188 190.921875 166.640625 190.242188 166.574219 189.558594 C 166.507812 188.871094 166.472656 188.183594 166.472656 187.496094 C 166.472656 186.808594 166.507812 186.121094 166.574219 185.433594 C 166.640625 184.75 166.742188 184.070312 166.875 183.394531 C 167.011719 182.71875 167.179688 182.050781 167.378906 181.390625 C 167.578125 180.734375 167.808594 180.085938 168.074219 179.449219 C 168.335938 178.8125 168.632812 178.191406 168.957031 177.582031 C 169.28125 176.976562 169.632812 176.386719 170.015625 175.8125 C 170.398438 175.242188 170.808594 174.6875 171.246094 174.15625 C 171.683594 173.625 172.144531 173.113281 172.632812 172.628906 C 173.117188 172.140625 173.628906 171.679688 174.160156 171.242188 C 174.691406 170.804688 175.246094 170.394531 175.816406 170.011719 C 176.390625 169.628906 176.980469 169.277344 177.585938 168.953125 C 178.195312 168.628906 178.816406 168.332031 179.453125 168.070312 C 180.089844 167.804688 180.738281 167.574219 181.394531 167.375 C 182.054688 167.175781 182.722656 167.007812 183.398438 166.875 C 184.074219 166.738281 184.753906 166.636719 185.4375 166.570312 C 186.125 166.503906 186.8125 166.46875 187.5 166.46875 C 188.1875 166.46875 188.875 166.503906 189.558594 166.570312 C 190.246094 166.636719 190.925781 166.738281 191.601562 166.875 C 192.277344 167.007812 192.945312 167.175781 193.601562 167.375 C 194.261719 167.574219 194.910156 167.804688 195.546875 168.070312 C 196.183594 168.332031 196.804688 168.628906 197.410156 168.953125 C 198.019531 169.277344 198.609375 169.628906 199.179688 170.011719 C 199.753906 170.394531 200.304688 170.804688 200.839844 171.242188 C 201.371094 171.679688 201.878906 172.140625 202.367188 172.628906 C 202.855469 173.113281 203.316406 173.625 203.753906 174.15625 C 204.191406 174.6875 204.597656 175.242188 204.980469 175.8125 C 205.363281 176.386719 205.71875 176.976562 206.042969 177.582031 C 206.367188 178.191406 206.660156 178.8125 206.925781 179.449219 C 207.1875 180.085938 207.421875 180.734375 207.621094 181.390625 C 207.820312 182.050781 207.988281 182.71875 208.121094 183.394531 C 208.257812 184.070312 208.355469 184.75 208.425781 185.433594 C 208.492188 186.121094 208.527344 186.808594 208.527344 187.496094 Z M 208.527344 187.496094 " fill-opacity="1" fill-rule="nonzero"/><g clip-path="url(#f9f7730332)"><path fill="#ffffff" d="M 90.566406 284.425781 C 64.675781 258.53125 50.417969 224.109375 50.417969 187.496094 C 50.417969 150.882812 64.675781 116.460938 90.566406 90.5625 L 100.773438 100.765625 C 77.605469 123.9375 64.851562 154.738281 64.851562 187.496094 C 64.851562 220.253906 77.605469 251.054688 100.773438 274.226562 Z M 90.566406 284.425781 " fill-opacity="1" fill-rule="nonzero"/></g><path fill="#ffffff" d="M 113.890625 261.105469 C 94.226562 241.445312 83.398438 215.304688 83.398438 187.496094 C 83.398438 159.6875 94.226562 133.542969 113.894531 113.886719 L 124.09375 124.089844 C 107.160156 141.023438 97.828125 163.542969 97.828125 187.496094 C 97.828125 211.449219 107.160156 233.964844 124.09375 250.902344 Z M 113.890625 261.105469 " fill-opacity="1" fill-rule="nonzero"/><path fill="#ffffff" d="M 137.214844 237.785156 C 123.78125 224.351562 116.386719 206.492188 116.386719 187.496094 C 116.386719 168.5 123.785156 150.640625 137.214844 137.207031 L 147.421875 147.414062 C 136.710938 158.121094 130.816406 172.355469 130.816406 187.496094 C 130.816406 202.636719 136.714844 216.875 147.421875 227.578125 Z M 137.214844 237.785156 " fill-opacity="1" fill-rule="nonzero"/><g clip-path="url(#e7d6616b06)"><path fill="#ffffff" d="M 284.429688 284.425781 L 274.226562 274.226562 C 297.390625 251.054688 310.148438 220.253906 310.148438 187.496094 C 310.148438 154.738281 297.390625 123.9375 274.226562 100.765625 L 284.429688 90.5625 C 310.324219 116.460938 324.578125 150.882812 324.578125 187.496094 C 324.578125 224.109375 310.320312 258.53125 284.429688 284.425781 Z M 284.429688 284.425781 " fill-opacity="1" fill-rule="nonzero"/></g><path fill="#ffffff" d="M 261.109375 261.105469 L 250.902344 250.902344 C 267.839844 233.964844 277.167969 211.445312 277.167969 187.496094 C 277.167969 163.546875 267.839844 141.023438 250.902344 124.089844 L 261.105469 113.886719 C 280.765625 133.542969 291.597656 159.683594 291.597656 187.496094 C 291.597656 215.308594 280.765625 241.445312 261.105469 261.105469 Z M 261.109375 261.105469 " fill-opacity="1" fill-rule="nonzero"/><path fill="#ffffff" d="M 237.789062 237.785156 L 227.582031 227.578125 C 238.292969 216.871094 244.183594 202.636719 244.183594 187.496094 C 244.183594 172.355469 238.289062 158.117188 227.582031 147.414062 L 237.789062 137.207031 C 251.222656 150.640625 258.621094 168.5 258.621094 187.496094 C 258.621094 206.492188 251.222656 224.347656 237.789062 237.785156 Z M 237.789062 237.785156 " fill-opacity="1" fill-rule="nonzero"/></svg>