<svg xmlns="http://www.w3.org/2000/svg" xmlns:xlink="http://www.w3.org/1999/xlink" width="500" zoomAndPan="magnify" viewBox="0 0 375 374.999991" height="500" preserveAspectRatio="xMidYMid meet" version="1.0"><defs><clipPath id="e8b90a1dd3"><path d="M 187.5 0 C 83.945312 0 0 83.945312 0 187.5 C 0 291.054688 83.945312 375 187.5 375 C 291.054688 375 375 291.054688 375 187.5 C 375 83.945312 291.054688 0 187.5 0 Z M 187.5 0 " clip-rule="nonzero"/></clipPath><clipPath id="822495720a"><path d="M 0 0 L 375 0 L 375 375 L 0 375 Z M 0 0 " clip-rule="nonzero"/></clipPath><clipPath id="070cef5422"><path d="M 187.5 0 C 83.945312 0 0 83.945312 0 187.5 C 0 291.054688 83.945312 375 187.5 375 C 291.054688 375 375 291.054688 375 187.5 C 375 83.945312 291.054688 0 187.5 0 Z M 187.5 0 " clip-rule="nonzero"/></clipPath><clipPath id="550abb6a1c"><rect x="0" width="375" y="0" height="375"/></clipPath><clipPath id="2cd5b9fb1a"><path d="M 97.601562 97.601562 L 277.601562 97.601562 L 277.601562 277.601562 L 97.601562 277.601562 Z M 97.601562 97.601562 " clip-rule="nonzero"/></clipPath></defs><g clip-path="url(#e8b90a1dd3)"><g transform="matrix(1, 0, 0, 1, 0, 0)"><g clip-path="url(#550abb6a1c)"><g clip-path="url(#822495720a)"><g clip-path="url(#070cef5422)"><rect x="-82.5" width="540" fill="#9ee493" height="539.999987" y="-82.499998" fill-opacity="1"/></g></g></g></g></g><path fill="#000000" d="M 129.800781 192.90625 L 168.851562 231.957031 L 241.65625 159.15625 L 231.050781 148.546875 L 168.851562 210.746094 L 140.40625 182.296875 Z M 129.800781 192.90625 " fill-opacity="1" fill-rule="nonzero"/><g clip-path="url(#2cd5b9fb1a)"><path fill="#000000" d="M 277.601562 187.601562 C 277.601562 237.308594 237.308594 277.601562 187.601562 277.601562 C 137.898438 277.601562 97.601562 237.308594 97.601562 187.601562 C 97.601562 137.898438 137.898438 97.601562 187.601562 97.601562 C 237.308594 97.601562 277.601562 137.898438 277.601562 187.601562 Z M 262.601562 187.601562 C 262.601562 229.023438 229.023438 262.601562 187.601562 262.601562 C 146.183594 262.601562 112.601562 229.023438 112.601562 187.601562 C 112.601562 146.183594 146.183594 112.601562 187.601562 112.601562 C 229.023438 112.601562 262.601562 146.183594 262.601562 187.601562 Z M 262.601562 187.601562 " fill-opacity="1" fill-rule="evenodd"/></g></svg>