<svg xmlns="http://www.w3.org/2000/svg" xmlns:xlink="http://www.w3.org/1999/xlink" width="500" zoomAndPan="magnify" viewBox="0 0 375 374.999991" height="500" preserveAspectRatio="xMidYMid meet" version="1.0"><defs><clipPath id="a6677092a3"><path d="M 17.25 0 L 357.75 0 C 362.324219 0 366.710938 1.816406 369.949219 5.050781 C 373.183594 8.289062 375 12.675781 375 17.25 L 375 357.75 C 375 362.324219 373.183594 366.710938 369.949219 369.949219 C 366.710938 373.183594 362.324219 375 357.75 375 L 17.25 375 C 12.675781 375 8.289062 373.183594 5.050781 369.949219 C 1.816406 366.710938 0 362.324219 0 357.75 L 0 17.25 C 0 12.675781 1.816406 8.289062 5.050781 5.050781 C 8.289062 1.816406 12.675781 0 17.25 0 Z M 17.25 0 " clip-rule="nonzero"/></clipPath><clipPath id="6c3a9736b1"><path d="M 0 0 L 375 0 L 375 375 L 0 375 Z M 0 0 " clip-rule="nonzero"/></clipPath><clipPath id="07f55a25ac"><path d="M 17.25 0 L 357.75 0 C 362.324219 0 366.710938 1.816406 369.949219 5.050781 C 373.183594 8.289062 375 12.675781 375 17.25 L 375 357.75 C 375 362.324219 373.183594 366.710938 369.949219 369.949219 C 366.710938 373.183594 362.324219 375 357.75 375 L 17.25 375 C 12.675781 375 8.289062 373.183594 5.050781 369.949219 C 1.816406 366.710938 0 362.324219 0 357.75 L 0 17.25 C 0 12.675781 1.816406 8.289062 5.050781 5.050781 C 8.289062 1.816406 12.675781 0 17.25 0 Z M 17.25 0 " clip-rule="nonzero"/></clipPath><clipPath id="d2fcf0e233"><rect x="0" width="375" y="0" height="375"/></clipPath></defs><g clip-path="url(#a6677092a3)"><g transform="matrix(1, 0, 0, 1, 0, 0)"><g clip-path="url(#d2fcf0e233)"><g clip-path="url(#6c3a9736b1)"><g clip-path="url(#07f55a25ac)"><rect x="-82.5" width="540" fill="#344966" height="539.999987" y="-82.499998" fill-opacity="1"/></g></g></g></g></g><path fill="#ffffff" d="M 187.445312 75 C 125.289062 75 75 125.34375 75 187.5 C 75 249.65625 125.289062 300 187.445312 300 C 249.601562 300 300 249.65625 300 187.5 C 300 125.34375 249.601562 75 187.445312 75 Z M 187.5 277.5 C 137.773438 277.5 97.5 237.226562 97.5 187.5 C 97.5 137.773438 137.773438 97.5 187.5 97.5 C 237.226562 97.5 277.5 137.773438 277.5 187.5 C 277.5 237.226562 237.226562 277.5 187.5 277.5 Z M 187.5 277.5 " fill-opacity="0.9" fill-rule="nonzero"/><path fill="#ffffff" d="M 193.125 131.25 L 176.25 131.25 L 176.25 198.75 L 235.257812 234.1875 L 243.75 220.351562 L 193.125 190.3125 Z M 193.125 131.25 " fill-opacity="0.9" fill-rule="nonzero"/></svg>