<svg xmlns="http://www.w3.org/2000/svg" xmlns:xlink="http://www.w3.org/1999/xlink" width="500" zoomAndPan="magnify" viewBox="0 0 375 374.999991" height="500" preserveAspectRatio="xMidYMid meet" version="1.0"><defs><clipPath id="3551c9b3c2"><path d="M 115.21875 75 L 259.96875 75 L 259.96875 300 L 115.21875 300 Z M 115.21875 75 " clip-rule="nonzero"/></clipPath></defs><g clip-path="url(#3551c9b3c2)"><path fill="#000000" d="M 259.96875 179.46875 L 259.96875 195.53125 C 256.914062 234.964844 231.339844 263.554688 195.636719 267.332031 L 195.636719 283.875 L 219.761719 283.875 L 219.761719 299.9375 L 155.425781 299.9375 L 155.425781 283.875 L 179.550781 283.875 L 179.550781 267.332031 C 144.167969 263.554688 118.597656 235.207031 115.21875 195.53125 L 115.21875 179.46875 L 131.300781 179.46875 L 131.300781 187.5 C 131.300781 225.328125 154.460938 251.75 187.59375 251.75 C 220.726562 251.75 243.886719 225.328125 243.886719 187.5 L 243.886719 179.46875 Z M 187.59375 243.71875 C 189.175781 243.71875 190.75 243.640625 192.324219 243.488281 C 193.894531 243.332031 195.457031 243.101562 197.007812 242.792969 C 198.558594 242.484375 200.085938 242.101562 201.601562 241.644531 C 203.113281 241.1875 204.597656 240.65625 206.058594 240.050781 C 207.519531 239.445312 208.945312 238.773438 210.339844 238.027344 C 211.730469 237.285156 213.085938 236.472656 214.398438 235.597656 C 215.714844 234.722656 216.980469 233.78125 218.203125 232.78125 C 219.425781 231.78125 220.59375 230.722656 221.710938 229.605469 C 222.828125 228.488281 223.890625 227.320312 224.890625 226.101562 C 225.894531 224.882812 226.835938 223.613281 227.710938 222.304688 C 228.589844 220.992188 229.402344 219.636719 230.144531 218.246094 C 230.890625 216.855469 231.566406 215.429688 232.171875 213.972656 C 232.777344 212.515625 233.308594 211.03125 233.765625 209.519531 C 234.226562 208.007812 234.609375 206.480469 234.917969 204.933594 C 235.226562 203.382812 235.457031 201.824219 235.613281 200.253906 C 235.765625 198.683594 235.84375 197.109375 235.84375 195.53125 L 235.84375 123.25 C 235.84375 121.671875 235.765625 120.097656 235.613281 118.527344 C 235.457031 116.957031 235.226562 115.398438 234.917969 113.847656 C 234.609375 112.300781 234.226562 110.773438 233.765625 109.261719 C 233.308594 107.75 232.777344 106.265625 232.171875 104.808594 C 231.566406 103.351562 230.890625 101.925781 230.144531 100.535156 C 229.402344 99.144531 228.589844 97.789062 227.710938 96.476562 C 226.835938 95.167969 225.894531 93.898438 224.890625 92.679688 C 223.890625 91.460938 222.828125 90.292969 221.710938 89.175781 C 220.59375 88.058594 219.425781 87 218.203125 86 C 216.980469 85 215.714844 84.058594 214.398438 83.183594 C 213.085938 82.308594 211.730469 81.496094 210.339844 80.753906 C 208.945312 80.007812 207.519531 79.335938 206.058594 78.730469 C 204.597656 78.125 203.113281 77.59375 201.601562 77.136719 C 200.085938 76.679688 198.558594 76.296875 197.007812 75.988281 C 195.457031 75.679688 193.894531 75.449219 192.324219 75.292969 C 190.75 75.140625 189.175781 75.0625 187.59375 75.0625 C 186.011719 75.0625 184.4375 75.140625 182.863281 75.292969 C 181.292969 75.449219 179.730469 75.679688 178.179688 75.988281 C 176.628906 76.296875 175.101562 76.679688 173.585938 77.136719 C 172.074219 77.59375 170.589844 78.125 169.128906 78.730469 C 167.667969 79.335938 166.242188 80.007812 164.847656 80.753906 C 163.457031 81.496094 162.101562 82.308594 160.789062 83.183594 C 159.472656 84.058594 158.207031 85 156.984375 86 C 155.761719 87 154.59375 88.058594 153.476562 89.175781 C 152.359375 90.292969 151.296875 91.460938 150.296875 92.679688 C 149.292969 93.898438 148.351562 95.167969 147.476562 96.476562 C 146.597656 97.789062 145.785156 99.144531 145.042969 100.535156 C 144.296875 101.925781 143.621094 103.351562 143.015625 104.808594 C 142.410156 106.265625 141.878906 107.75 141.421875 109.261719 C 140.960938 110.773438 140.578125 112.300781 140.269531 113.847656 C 139.960938 115.398438 139.730469 116.957031 139.574219 118.527344 C 139.421875 120.097656 139.34375 121.671875 139.34375 123.25 L 139.34375 195.53125 C 139.34375 197.109375 139.421875 198.683594 139.574219 200.253906 C 139.730469 201.824219 139.960938 203.382812 140.269531 204.933594 C 140.578125 206.480469 140.960938 208.007812 141.421875 209.519531 C 141.878906 211.03125 142.410156 212.515625 143.015625 213.972656 C 143.621094 215.429688 144.296875 216.855469 145.042969 218.246094 C 145.785156 219.636719 146.597656 220.992188 147.476562 222.304688 C 148.351562 223.613281 149.292969 224.882812 150.296875 226.101562 C 151.296875 227.320312 152.359375 228.488281 153.476562 229.605469 C 154.59375 230.722656 155.761719 231.78125 156.984375 232.78125 C 158.207031 233.78125 159.472656 234.722656 160.789062 235.597656 C 162.101562 236.472656 163.457031 237.285156 164.847656 238.027344 C 166.242188 238.773438 167.667969 239.445312 169.128906 240.050781 C 170.589844 240.65625 172.074219 241.1875 173.585938 241.644531 C 175.101562 242.101562 176.628906 242.484375 178.179688 242.792969 C 179.730469 243.101562 181.292969 243.332031 182.863281 243.488281 C 184.4375 243.640625 186.011719 243.71875 187.59375 243.71875 Z M 187.59375 243.71875 " fill-opacity="1" fill-rule="nonzero"/></g></svg>